<svg width="42" height="40" viewBox="0 0 42 40" fill="none" xmlns="http://www.w3.org/2000/svg">
<rect width="42" height="40" fill="white"/>
<path d="M2.53962 34.8827C1.10424 33.9217 2.00025 32.2255 3.72759 32.2292L38.5032 32.3033C40.2305 32.307 41.1194 34.007 39.6801 34.9619C35.9645 37.4267 29.0341 39.0752 21.1012 39.0583C13.1684 39.0414 6.24489 37.3634 2.53962 34.8827Z" fill="#FFA500"/>
<path d="M42 17H0C1.80944 7.33123 10.5232 0 21 0C31.4768 0 40.1906 7.33123 42 17Z" fill="#FFA500"/>
<path d="M0 24.3564C0 23.055 1.05499 22 2.3564 22H39.6436C40.945 22 42 23.055 42 24.3564V25.6436C42 26.945 40.945 28 39.6436 28H2.3564C1.05499 28 0 26.945 0 25.6436V24.3564Z" fill="#96B668"/>
<path d="M30.5 27L25 22H36L30.5 27Z" fill="white" stroke="white" stroke-width="0.471279"/>
</svg>
