<svg width="144" height="45" viewBox="0 0 144 45" fill="none" xmlns="http://www.w3.org/2000/svg">
<rect width="144" height="45" fill="white"/>
<path d="M2.44886 39.1884C1.05598 38.1763 1.98526 36.4706 3.70702 36.4742L42.51 36.556C44.2318 36.5597 45.1539 38.2692 43.7567 39.2755C39.7805 42.1392 32.016 44.0734 23.0926 44.0546C14.1692 44.0358 6.41298 42.0688 2.44886 39.1884Z" fill="#FFA500"/>
<path d="M46.3843 20.0194H0.0178223C2.01538 9.02969 11.6351 0.696899 23.2011 0.696899C34.767 0.696899 44.3868 9.02969 46.3843 20.0194Z" fill="#FFA500"/>
<path d="M0.0178223 27.0885C0.0178223 25.7871 1.07282 24.7321 2.37422 24.7321H43.8468C45.1482 24.7321 46.2032 25.7871 46.2032 27.0885V28.9736C46.2032 30.275 45.1482 31.33 43.8468 31.33H2.37421C1.07281 31.33 0.0178223 30.275 0.0178223 28.9736V27.0885Z" fill="#96B668"/>
<path d="M33.0074 30.8587L26.8807 24.7321H39.134L33.0074 30.8587Z" fill="white" stroke="white" stroke-width="0.471279"/>
<path d="M64.899 21.258V24.135H58.893V27.243H63.387V30.036H58.893V36H55.302V21.258H64.899ZM73.7584 36.147C72.3724 36.147 71.0984 35.825 69.9364 35.181C68.7884 34.537 67.8714 33.641 67.1854 32.493C66.5134 31.331 66.1774 30.029 66.1774 28.587C66.1774 27.145 66.5134 25.85 67.1854 24.702C67.8714 23.554 68.7884 22.658 69.9364 22.014C71.0984 21.37 72.3724 21.048 73.7584 21.048C75.1444 21.048 76.4114 21.37 77.5594 22.014C78.7214 22.658 79.6314 23.554 80.2894 24.702C80.9614 25.85 81.2974 27.145 81.2974 28.587C81.2974 30.029 80.9614 31.331 80.2894 32.493C79.6174 33.641 78.7074 34.537 77.5594 35.181C76.4114 35.825 75.1444 36.147 73.7584 36.147ZM73.7584 32.871C74.9344 32.871 75.8724 32.479 76.5724 31.695C77.2864 30.911 77.6434 29.875 77.6434 28.587C77.6434 27.285 77.2864 26.249 76.5724 25.479C75.8724 24.695 74.9344 24.303 73.7584 24.303C72.5684 24.303 71.6164 24.688 70.9024 25.458C70.2024 26.228 69.8524 27.271 69.8524 28.587C69.8524 29.889 70.2024 30.932 70.9024 31.716C71.6164 32.486 72.5684 32.871 73.7584 32.871ZM90.2672 36.147C88.8812 36.147 87.6072 35.825 86.4452 35.181C85.2972 34.537 84.3802 33.641 83.6942 32.493C83.0222 31.331 82.6862 30.029 82.6862 28.587C82.6862 27.145 83.0222 25.85 83.6942 24.702C84.3802 23.554 85.2972 22.658 86.4452 22.014C87.6072 21.37 88.8812 21.048 90.2672 21.048C91.6532 21.048 92.9202 21.37 94.0682 22.014C95.2302 22.658 96.1402 23.554 96.7982 24.702C97.4702 25.85 97.8062 27.145 97.8062 28.587C97.8062 30.029 97.4702 31.331 96.7982 32.493C96.1262 33.641 95.2162 34.537 94.0682 35.181C92.9202 35.825 91.6532 36.147 90.2672 36.147ZM90.2672 32.871C91.4432 32.871 92.3812 32.479 93.0812 31.695C93.7952 30.911 94.1522 29.875 94.1522 28.587C94.1522 27.285 93.7952 26.249 93.0812 25.479C92.3812 24.695 91.4432 24.303 90.2672 24.303C89.0772 24.303 88.1252 24.688 87.4112 25.458C86.7112 26.228 86.3612 27.271 86.3612 28.587C86.3612 29.889 86.7112 30.932 87.4112 31.716C88.1252 32.486 89.0772 32.871 90.2672 32.871ZM105.327 21.258C106.881 21.258 108.239 21.566 109.401 22.182C110.563 22.798 111.459 23.666 112.089 24.786C112.733 25.892 113.055 27.173 113.055 28.629C113.055 30.071 112.733 31.352 112.089 32.472C111.459 33.592 110.556 34.46 109.38 35.076C108.218 35.692 106.867 36 105.327 36H99.804V21.258H105.327ZM105.096 32.892C106.454 32.892 107.511 32.521 108.267 31.779C109.023 31.037 109.401 29.987 109.401 28.629C109.401 27.271 109.023 26.214 108.267 25.458C107.511 24.702 106.454 24.324 105.096 24.324H103.395V32.892H105.096ZM118.653 21.258V36H115.062V21.258H118.653ZM124.846 24.135V27.117H129.655V29.889H124.846V33.123H130.285V36H121.255V21.258H130.285V24.135H124.846ZM137.95 36.147C136.872 36.147 135.906 35.972 135.052 35.622C134.198 35.272 133.512 34.754 132.994 34.068C132.49 33.382 132.224 32.556 132.196 31.59H136.018C136.074 32.136 136.263 32.556 136.585 32.85C136.907 33.13 137.327 33.27 137.845 33.27C138.377 33.27 138.797 33.151 139.105 32.913C139.413 32.661 139.567 32.318 139.567 31.884C139.567 31.52 139.441 31.219 139.189 30.981C138.951 30.743 138.65 30.547 138.286 30.393C137.936 30.239 137.432 30.064 136.774 29.868C135.822 29.574 135.045 29.28 134.443 28.986C133.841 28.692 133.323 28.258 132.889 27.684C132.455 27.11 132.238 26.361 132.238 25.437C132.238 24.065 132.735 22.994 133.729 22.224C134.723 21.44 136.018 21.048 137.614 21.048C139.238 21.048 140.547 21.44 141.541 22.224C142.535 22.994 143.067 24.072 143.137 25.458H139.252C139.224 24.982 139.049 24.611 138.727 24.345C138.405 24.065 137.992 23.925 137.488 23.925C137.054 23.925 136.704 24.044 136.438 24.282C136.172 24.506 136.039 24.835 136.039 25.269C136.039 25.745 136.263 26.116 136.711 26.382C137.159 26.648 137.859 26.935 138.811 27.243C139.763 27.565 140.533 27.873 141.121 28.167C141.723 28.461 142.241 28.888 142.675 29.448C143.109 30.008 143.326 30.729 143.326 31.611C143.326 32.451 143.109 33.214 142.675 33.9C142.255 34.586 141.639 35.132 140.827 35.538C140.015 35.944 139.056 36.147 137.95 36.147Z" fill="black"/>
</svg>
