<svg width="135" height="45" viewBox="0 0 135 45" fill="none" xmlns="http://www.w3.org/2000/svg">
<rect width="135" height="45" fill="white"/>
<path d="M2.44886 39.1884C1.05598 38.1763 1.98526 36.4706 3.70702 36.4742L42.51 36.556C44.2318 36.5597 45.1539 38.2692 43.7567 39.2755C39.7805 42.1392 32.016 44.0734 23.0926 44.0546C14.1692 44.0358 6.41298 42.0688 2.44886 39.1884Z" fill="#FFA500"/>
<path d="M46.3843 20.0194H0.0178223C2.01538 9.02969 11.6351 0.696899 23.2011 0.696899C34.767 0.696899 44.3868 9.02969 46.3843 20.0194Z" fill="#FFA500"/>
<path d="M0.0178223 27.0885C0.0178223 25.7871 1.07282 24.7321 2.37422 24.7321H43.8468C45.1482 24.7321 46.2032 25.7871 46.2032 27.0885V28.9736C46.2032 30.275 45.1482 31.33 43.8468 31.33H2.37421C1.07281 31.33 0.0178223 30.275 0.0178223 28.9736V27.0885Z" fill="#96B668"/>
<path d="M33.0074 30.8587L26.8807 24.7321H39.134L33.0074 30.8587Z" fill="white" stroke="white" stroke-width="0.471279"/>
<path d="M64.164 21.405V23.358H57.969V27.663H62.799V29.616H57.969V36H55.575V21.405H64.164ZM71.4016 36.189C70.3096 36.189 69.3226 35.944 68.4406 35.454C67.5586 34.95 66.8656 34.25 66.3616 33.354C65.8576 32.444 65.6056 31.394 65.6056 30.204C65.6056 29.028 65.8646 27.985 66.3826 27.075C66.9006 26.165 67.6076 25.465 68.5036 24.975C69.3996 24.485 70.4006 24.24 71.5066 24.24C72.6126 24.24 73.6136 24.485 74.5096 24.975C75.4056 25.465 76.1126 26.165 76.6306 27.075C77.1486 27.985 77.4076 29.028 77.4076 30.204C77.4076 31.38 77.1416 32.423 76.6096 33.333C76.0776 34.243 75.3496 34.95 74.4256 35.454C73.5156 35.944 72.5076 36.189 71.4016 36.189ZM71.4016 34.11C72.0176 34.11 72.5916 33.963 73.1236 33.669C73.6696 33.375 74.1106 32.934 74.4466 32.346C74.7826 31.758 74.9506 31.044 74.9506 30.204C74.9506 29.364 74.7896 28.657 74.4676 28.083C74.1456 27.495 73.7186 27.054 73.1866 26.76C72.6546 26.466 72.0806 26.319 71.4646 26.319C70.8486 26.319 70.2746 26.466 69.7426 26.76C69.2246 27.054 68.8116 27.495 68.5036 28.083C68.1956 28.657 68.0416 29.364 68.0416 30.204C68.0416 31.45 68.3566 32.416 68.9866 33.102C69.6306 33.774 70.4356 34.11 71.4016 34.11ZM84.7932 36.189C83.7012 36.189 82.7142 35.944 81.8322 35.454C80.9502 34.95 80.2572 34.25 79.7532 33.354C79.2492 32.444 78.9972 31.394 78.9972 30.204C78.9972 29.028 79.2562 27.985 79.7742 27.075C80.2922 26.165 80.9992 25.465 81.8952 24.975C82.7912 24.485 83.7922 24.24 84.8982 24.24C86.0042 24.24 87.0052 24.485 87.9012 24.975C88.7972 25.465 89.5042 26.165 90.0222 27.075C90.5402 27.985 90.7992 29.028 90.7992 30.204C90.7992 31.38 90.5332 32.423 90.0012 33.333C89.4692 34.243 88.7412 34.95 87.8172 35.454C86.9072 35.944 85.8992 36.189 84.7932 36.189ZM84.7932 34.11C85.4092 34.11 85.9832 33.963 86.5152 33.669C87.0612 33.375 87.5022 32.934 87.8382 32.346C88.1742 31.758 88.3422 31.044 88.3422 30.204C88.3422 29.364 88.1812 28.657 87.8592 28.083C87.5372 27.495 87.1102 27.054 86.5782 26.76C86.0462 26.466 85.4722 26.319 84.8562 26.319C84.2402 26.319 83.6662 26.466 83.1342 26.76C82.6162 27.054 82.2032 27.495 81.8952 28.083C81.5872 28.657 81.4332 29.364 81.4332 30.204C81.4332 31.45 81.7482 32.416 82.3782 33.102C83.0222 33.774 83.8272 34.11 84.7932 34.11ZM92.3678 30.162C92.3678 29 92.6058 27.971 93.0818 27.075C93.5718 26.179 94.2298 25.486 95.0558 24.996C95.8958 24.492 96.8268 24.24 97.8488 24.24C98.6048 24.24 99.3468 24.408 100.075 24.744C100.817 25.066 101.405 25.5 101.839 26.046V20.46H104.254V36H101.839V34.257C101.447 34.817 100.901 35.279 100.201 35.643C99.5148 36.007 98.7238 36.189 97.8278 36.189C96.8198 36.189 95.8958 35.937 95.0558 35.433C94.2298 34.915 93.5718 34.201 93.0818 33.291C92.6058 32.367 92.3678 31.324 92.3678 30.162ZM101.839 30.204C101.839 29.406 101.671 28.713 101.335 28.125C101.013 27.537 100.586 27.089 100.054 26.781C99.5218 26.473 98.9478 26.319 98.3318 26.319C97.7158 26.319 97.1418 26.473 96.6098 26.781C96.0778 27.075 95.6438 27.516 95.3078 28.104C94.9858 28.678 94.8248 29.364 94.8248 30.162C94.8248 30.96 94.9858 31.66 95.3078 32.262C95.6438 32.864 96.0778 33.326 96.6098 33.648C97.1558 33.956 97.7298 34.11 98.3318 34.11C98.9478 34.11 99.5218 33.956 100.054 33.648C100.586 33.34 101.013 32.892 101.335 32.304C101.671 31.702 101.839 31.002 101.839 30.204ZM108.616 22.896C108.182 22.896 107.818 22.749 107.524 22.455C107.23 22.161 107.083 21.797 107.083 21.363C107.083 20.929 107.23 20.565 107.524 20.271C107.818 19.977 108.182 19.83 108.616 19.83C109.036 19.83 109.393 19.977 109.687 20.271C109.981 20.565 110.128 20.929 110.128 21.363C110.128 21.797 109.981 22.161 109.687 22.455C109.393 22.749 109.036 22.896 108.616 22.896ZM109.792 24.429V36H107.398V24.429H109.792ZM123.54 29.931C123.54 30.365 123.512 30.757 123.456 31.107H114.615C114.685 32.031 115.028 32.773 115.644 33.333C116.26 33.893 117.016 34.173 117.912 34.173C119.2 34.173 120.11 33.634 120.642 32.556H123.225C122.875 33.62 122.238 34.495 121.314 35.181C120.404 35.853 119.27 36.189 117.912 36.189C116.806 36.189 115.812 35.944 114.93 35.454C114.062 34.95 113.376 34.25 112.872 33.354C112.382 32.444 112.137 31.394 112.137 30.204C112.137 29.014 112.375 27.971 112.851 27.075C113.341 26.165 114.02 25.465 114.888 24.975C115.77 24.485 116.778 24.24 117.912 24.24C119.004 24.24 119.977 24.478 120.831 24.954C121.685 25.43 122.35 26.102 122.826 26.97C123.302 27.824 123.54 28.811 123.54 29.931ZM121.041 29.175C121.027 28.293 120.712 27.586 120.096 27.054C119.48 26.522 118.717 26.256 117.807 26.256C116.981 26.256 116.274 26.522 115.686 27.054C115.098 27.572 114.748 28.279 114.636 29.175H121.041ZM130.096 36.189C129.186 36.189 128.367 36.028 127.639 35.706C126.925 35.37 126.358 34.922 125.938 34.362C125.518 33.788 125.294 33.151 125.266 32.451H127.744C127.786 32.941 128.017 33.354 128.437 33.69C128.871 34.012 129.41 34.173 130.054 34.173C130.726 34.173 131.244 34.047 131.608 33.795C131.986 33.529 132.175 33.193 132.175 32.787C132.175 32.353 131.965 32.031 131.545 31.821C131.139 31.611 130.488 31.38 129.592 31.128C128.724 30.89 128.017 30.659 127.471 30.435C126.925 30.211 126.449 29.868 126.043 29.406C125.651 28.944 125.455 28.335 125.455 27.579C125.455 26.963 125.637 26.403 126.001 25.899C126.365 25.381 126.883 24.975 127.555 24.681C128.241 24.387 129.025 24.24 129.907 24.24C131.223 24.24 132.28 24.576 133.078 25.248C133.89 25.906 134.324 26.809 134.38 27.957H131.986C131.944 27.439 131.734 27.026 131.356 26.718C130.978 26.41 130.467 26.256 129.823 26.256C129.193 26.256 128.71 26.375 128.374 26.613C128.038 26.851 127.87 27.166 127.87 27.558C127.87 27.866 127.982 28.125 128.206 28.335C128.43 28.545 128.703 28.713 129.025 28.839C129.347 28.951 129.823 29.098 130.453 29.28C131.293 29.504 131.979 29.735 132.511 29.973C133.057 30.197 133.526 30.533 133.918 30.981C134.31 31.429 134.513 32.024 134.527 32.766C134.527 33.424 134.345 34.012 133.981 34.53C133.617 35.048 133.099 35.454 132.427 35.748C131.769 36.042 130.992 36.189 130.096 36.189Z" fill="black"/>
</svg>
