<svg xmlns="http://www.w3.org/2000/svg" width="131" height="40" fill="none" viewBox="0 0 131 40"><rect width="131" height="40" fill="#fff"/><path fill="orange" d="M2.53962 34.8827C1.10424 33.9217 2.00025 32.2255 3.72759 32.2292L38.5032 32.3033C40.2305 32.307 41.1194 34.007 39.6801 34.9619C35.9645 37.4267 29.0341 39.0752 21.1012 39.0583C13.1684 39.0414 6.24489 37.3634 2.53962 34.8827Z"/><path fill="orange" d="M42 17H0C1.80944 7.33123 10.5232 0 21 0C31.4768 0 40.1906 7.33123 42 17Z"/><path fill="#96B668" d="M0 24.3564C0 23.055 1.05499 22 2.3564 22H39.6436C40.945 22 42 23.055 42 24.3564V25.6436C42 26.945 40.945 28 39.6436 28H2.3564C1.05499 28 0 26.945 0 25.6436V24.3564Z"/><path fill="#fff" stroke="#fff" stroke-width=".471" d="M30.5 27L25 22H36L30.5 27Z"/><path fill="#000" d="M60.164 16.405V18.358H53.969V22.663H58.799V24.616H53.969V31H51.575V16.405H60.164ZM67.4016 31.189C66.3096 31.189 65.3226 30.944 64.4406 30.454C63.5586 29.95 62.8656 29.25 62.3616 28.354C61.8576 27.444 61.6056 26.394 61.6056 25.204C61.6056 24.028 61.8646 22.985 62.3826 22.075C62.9006 21.165 63.6076 20.465 64.5036 19.975C65.3996 19.485 66.4006 19.24 67.5066 19.24C68.6126 19.24 69.6136 19.485 70.5096 19.975C71.4056 20.465 72.1126 21.165 72.6306 22.075C73.1486 22.985 73.4076 24.028 73.4076 25.204C73.4076 26.38 73.1416 27.423 72.6096 28.333C72.0776 29.243 71.3496 29.95 70.4256 30.454C69.5156 30.944 68.5076 31.189 67.4016 31.189ZM67.4016 29.11C68.0176 29.11 68.5916 28.963 69.1236 28.669C69.6696 28.375 70.1106 27.934 70.4466 27.346C70.7826 26.758 70.9506 26.044 70.9506 25.204C70.9506 24.364 70.7896 23.657 70.4676 23.083C70.1456 22.495 69.7186 22.054 69.1866 21.76C68.6546 21.466 68.0806 21.319 67.4646 21.319C66.8486 21.319 66.2746 21.466 65.7426 21.76C65.2246 22.054 64.8116 22.495 64.5036 23.083C64.1956 23.657 64.0416 24.364 64.0416 25.204C64.0416 26.45 64.3566 27.416 64.9866 28.102C65.6306 28.774 66.4356 29.11 67.4016 29.11ZM80.7932 31.189C79.7012 31.189 78.7142 30.944 77.8322 30.454C76.9502 29.95 76.2572 29.25 75.7532 28.354C75.2492 27.444 74.9972 26.394 74.9972 25.204C74.9972 24.028 75.2562 22.985 75.7742 22.075C76.2922 21.165 76.9992 20.465 77.8952 19.975C78.7912 19.485 79.7922 19.24 80.8982 19.24C82.0042 19.24 83.0052 19.485 83.9012 19.975C84.7972 20.465 85.5042 21.165 86.0222 22.075C86.5402 22.985 86.7992 24.028 86.7992 25.204C86.7992 26.38 86.5332 27.423 86.0012 28.333C85.4692 29.243 84.7412 29.95 83.8172 30.454C82.9072 30.944 81.8992 31.189 80.7932 31.189ZM80.7932 29.11C81.4092 29.11 81.9832 28.963 82.5152 28.669C83.0612 28.375 83.5022 27.934 83.8382 27.346C84.1742 26.758 84.3422 26.044 84.3422 25.204C84.3422 24.364 84.1812 23.657 83.8592 23.083C83.5372 22.495 83.1102 22.054 82.5782 21.76C82.0462 21.466 81.4722 21.319 80.8562 21.319C80.2402 21.319 79.6662 21.466 79.1342 21.76C78.6162 22.054 78.2032 22.495 77.8952 23.083C77.5872 23.657 77.4332 24.364 77.4332 25.204C77.4332 26.45 77.7482 27.416 78.3782 28.102C79.0222 28.774 79.8272 29.11 80.7932 29.11ZM88.3678 25.162C88.3678 24 88.6058 22.971 89.0818 22.075C89.5718 21.179 90.2298 20.486 91.0558 19.996C91.8958 19.492 92.8268 19.24 93.8488 19.24C94.6048 19.24 95.3468 19.408 96.0748 19.744C96.8168 20.066 97.4048 20.5 97.8388 21.046V15.46H100.254V31H97.8388V29.257C97.4468 29.817 96.9008 30.279 96.2008 30.643C95.5148 31.007 94.7238 31.189 93.8278 31.189C92.8198 31.189 91.8958 30.937 91.0558 30.433C90.2298 29.915 89.5718 29.201 89.0818 28.291C88.6058 27.367 88.3678 26.324 88.3678 25.162ZM97.8388 25.204C97.8388 24.406 97.6708 23.713 97.3348 23.125C97.0128 22.537 96.5858 22.089 96.0538 21.781C95.5218 21.473 94.9478 21.319 94.3318 21.319C93.7158 21.319 93.1418 21.473 92.6098 21.781C92.0778 22.075 91.6438 22.516 91.3078 23.104C90.9858 23.678 90.8248 24.364 90.8248 25.162C90.8248 25.96 90.9858 26.66 91.3078 27.262C91.6438 27.864 92.0778 28.326 92.6098 28.648C93.1558 28.956 93.7298 29.11 94.3318 29.11C94.9478 29.11 95.5218 28.956 96.0538 28.648C96.5858 28.34 97.0128 27.892 97.3348 27.304C97.6708 26.702 97.8388 26.002 97.8388 25.204ZM104.616 17.896C104.182 17.896 103.818 17.749 103.524 17.455C103.23 17.161 103.083 16.797 103.083 16.363C103.083 15.929 103.23 15.565 103.524 15.271C103.818 14.977 104.182 14.83 104.616 14.83C105.036 14.83 105.393 14.977 105.687 15.271C105.981 15.565 106.128 15.929 106.128 16.363C106.128 16.797 105.981 17.161 105.687 17.455C105.393 17.749 105.036 17.896 104.616 17.896ZM105.792 19.429V31H103.398V19.429H105.792ZM119.54 24.931C119.54 25.365 119.512 25.757 119.456 26.107H110.615C110.685 27.031 111.028 27.773 111.644 28.333C112.26 28.893 113.016 29.173 113.912 29.173C115.2 29.173 116.11 28.634 116.642 27.556H119.225C118.875 28.62 118.238 29.495 117.314 30.181C116.404 30.853 115.27 31.189 113.912 31.189C112.806 31.189 111.812 30.944 110.93 30.454C110.062 29.95 109.376 29.25 108.872 28.354C108.382 27.444 108.137 26.394 108.137 25.204C108.137 24.014 108.375 22.971 108.851 22.075C109.341 21.165 110.02 20.465 110.888 19.975C111.77 19.485 112.778 19.24 113.912 19.24C115.004 19.24 115.977 19.478 116.831 19.954C117.685 20.43 118.35 21.102 118.826 21.97C119.302 22.824 119.54 23.811 119.54 24.931ZM117.041 24.175C117.027 23.293 116.712 22.586 116.096 22.054C115.48 21.522 114.717 21.256 113.807 21.256C112.981 21.256 112.274 21.522 111.686 22.054C111.098 22.572 110.748 23.279 110.636 24.175H117.041ZM126.096 31.189C125.186 31.189 124.367 31.028 123.639 30.706C122.925 30.37 122.358 29.922 121.938 29.362C121.518 28.788 121.294 28.151 121.266 27.451H123.744C123.786 27.941 124.017 28.354 124.437 28.69C124.871 29.012 125.41 29.173 126.054 29.173C126.726 29.173 127.244 29.047 127.608 28.795C127.986 28.529 128.175 28.193 128.175 27.787C128.175 27.353 127.965 27.031 127.545 26.821C127.139 26.611 126.488 26.38 125.592 26.128C124.724 25.89 124.017 25.659 123.471 25.435C122.925 25.211 122.449 24.868 122.043 24.406C121.651 23.944 121.455 23.335 121.455 22.579C121.455 21.963 121.637 21.403 122.001 20.899C122.365 20.381 122.883 19.975 123.555 19.681C124.241 19.387 125.025 19.24 125.907 19.24C127.223 19.24 128.28 19.576 129.078 20.248C129.89 20.906 130.324 21.809 130.38 22.957H127.986C127.944 22.439 127.734 22.026 127.356 21.718C126.978 21.41 126.467 21.256 125.823 21.256C125.193 21.256 124.71 21.375 124.374 21.613C124.038 21.851 123.87 22.166 123.87 22.558C123.87 22.866 123.982 23.125 124.206 23.335C124.43 23.545 124.703 23.713 125.025 23.839C125.347 23.951 125.823 24.098 126.453 24.28C127.293 24.504 127.979 24.735 128.511 24.973C129.057 25.197 129.526 25.533 129.918 25.981C130.31 26.429 130.513 27.024 130.527 27.766C130.527 28.424 130.345 29.012 129.981 29.53C129.617 30.048 129.099 30.454 128.427 30.748C127.769 31.042 126.992 31.189 126.096 31.189Z"/></svg>